<svg width="32" height="28" viewBox="0 0 32 28" fill="none" xmlns="http://www.w3.org/2000/svg">
<path d="M16 7.50001C17.0714 3.22355 21.1181 1.03996 29.9286 1.00001C30.0694 0.999471 30.209 1.02713 30.3392 1.08138C30.4694 1.13563 30.5878 1.21541 30.6874 1.31611C30.787 1.41681 30.8659 1.53645 30.9195 1.66813C30.9732 1.79981 31.0005 1.94092 31 2.08334V21.5833C31 21.8707 30.8871 22.1462 30.6862 22.3494C30.4852 22.5525 30.2127 22.6667 29.9286 22.6667C21.3571 22.6667 18.0458 24.4142 16 27M16 7.50001C14.9286 3.22355 10.8819 1.03996 2.07144 1.00001C1.93058 0.999471 1.79102 1.02713 1.66079 1.08138C1.53056 1.13563 1.41223 1.21541 1.31264 1.31611C1.21304 1.41681 1.13414 1.53645 1.08048 1.66813C1.02683 1.79981 0.999476 1.94092 1.00001 2.08334V21.4527C1.00001 22.1216 1.40983 22.6667 2.07144 22.6667C10.6429 22.6667 13.9663 24.4271 16 27M16 7.50001V27" stroke="white" stroke-width="2" stroke-linecap="round" stroke-linejoin="round"/>
</svg>
