<svg width="35" height="30" viewBox="0 0 35 30" fill="none" xmlns="http://www.w3.org/2000/svg">
<path d="M18.214 0.246317C18.007 0.0866898 17.752 0 17.4895 0C17.227 0 16.972 0.0866898 16.765 0.246317L0 13.1754L1.45017 14.9893L3.5 13.4085V27.6923C3.50123 28.3039 3.74746 28.8902 4.18478 29.3227C4.6221 29.7553 5.21487 29.9988 5.83333 30H29.1667C29.7851 29.9988 30.3779 29.7553 30.8152 29.3227C31.2525 28.8902 31.4988 28.3039 31.5 27.6923V13.4189L33.5498 14.9997L35 13.1858L18.214 0.246317ZM19.8333 27.6923H15.1667V18.4613H19.8333V27.6923ZM22.1667 27.6923V18.4613C22.166 17.8494 21.92 17.2628 21.4826 16.8302C21.0451 16.3975 20.452 16.1542 19.8333 16.1536H15.1667C14.548 16.1542 13.9549 16.3975 13.5174 16.8302C13.08 17.2628 12.834 17.8494 12.8333 18.4613V27.6923H5.83333V11.6096L17.5 2.62098L29.1667 11.6212V27.6923H22.1667Z" fill="white"/>
</svg>
